<svg xmlns="http://www.w3.org/2000/svg" width="30" height="30" fill="none" viewBox="0 0 30 30"><path fill="#fff" d="M24.5737 13.5412C24.5737 7.97808 20.3569 4.1062 14.295 4.1062C8.01374 4.1062 3.70874 8.45245 3.70874 14.7975C3.70874 21.3468 7.89936 25.5 14.5125 25.5C16.1287 25.5 17.6794 25.2693 18.8325 24.8718V23.2556C18.0262 23.6287 16.2937 23.8706 14.5387 23.8706C9.05249 23.8706 5.51437 20.3456 5.51437 14.8743C5.51437 9.54183 9.11624 5.72245 14.1281 5.72245C19.2562 5.72245 22.7681 8.88745 22.7681 13.515C22.7681 16.6687 21.7294 18.7068 20.1131 18.7068C19.1906 18.7068 18.6656 18.1818 18.6656 17.2818V9.7612H16.7306V11.325H16.5244C16.0256 10.2093 14.8725 9.51745 13.5244 9.51745C10.8994 9.51745 9.06561 11.6962 9.06561 14.8106C9.06561 18.0675 10.86 20.2593 13.5262 20.2593C15.0262 20.2593 16.1794 19.5281 16.7306 18.2212H16.9369C17.0887 19.4775 18.255 20.3737 19.755 20.3737C22.7025 20.3737 24.5737 17.7187 24.5737 13.5412ZM11.1169 14.8612C11.1169 12.6168 12.1294 11.2856 13.8469 11.2856C15.5906 11.2856 16.7044 12.6693 16.7044 14.8612C16.7044 17.0531 15.5775 18.45 13.8206 18.45C12.1425 18.45 11.1169 17.0906 11.1169 14.8612Z"/></svg>