<svg xmlns="http://www.w3.org/2000/svg" width="41" height="41" fill="none" viewBox="0 0 41 41"><g clip-path="url(#clip0_642_2993)"><path fill="#F97316" d="M25.5206 1.77847L21.5876 0.724609L18.2732 13.0942L15.2809 1.92685L11.3478 2.98071L14.5808 15.0462L6.52818 6.99359L3.64899 9.87278L12.4817 18.7056L1.48196 15.7582L0.428101 19.6912L12.4467 22.9116C12.3091 22.3181 12.2363 21.6997 12.2363 21.0643C12.2363 16.5667 15.8823 12.9207 20.3799 12.9207C24.8775 12.9207 28.5235 16.5667 28.5235 21.0643C28.5235 21.6956 28.4516 22.3102 28.3157 22.9002L39.2384 25.8269L40.2922 21.8939L28.2258 18.6607L39.2263 15.7131L38.1724 11.7801L26.1065 15.0131L34.1591 6.96053L31.2799 4.08134L22.5697 12.7916L25.5206 1.77847Z"/><path fill="#F97316" d="M28.3051 22.946C27.9679 24.3716 27.256 25.6523 26.2792 26.6784L34.1922 34.5915L37.0714 31.7123L28.3051 22.946Z"/><path fill="#F97316" d="M26.1991 26.7612C25.2105 27.7709 23.9612 28.5244 22.5602 28.9127L25.4396 39.6587L29.3726 38.6048L26.1991 26.7612Z"/><path fill="#F97316" d="M22.4133 28.952C21.7633 29.1191 21.082 29.2079 20.3799 29.2079C19.6277 29.2079 18.8993 29.1059 18.2078 28.915L15.3258 39.6708L19.2588 40.7246L22.4133 28.952Z"/><path fill="#F97316" d="M18.0689 28.8753C16.6893 28.4677 15.4622 27.7046 14.4938 26.692L6.56128 34.6245L9.44047 37.5037L18.0689 28.8753Z"/><path fill="#F97316" d="M14.4275 26.622C13.4757 25.603 12.7824 24.3394 12.4524 22.9358L1.49402 25.8721L2.54787 29.8051L14.4275 26.622Z"/></g><defs><clipPath id="clip0_642_2993"><rect width="41" height="41" fill="#fff"/></clipPath></defs></svg>