<svg width="30" height="30" viewBox="0 0 30 30" fill="none" xmlns="http://www.w3.org/2000/svg">
<path d="M3.75 21.25H26.25C26.9375 21.25 27.5 21.8125 27.5 22.5C27.5 23.1875 26.9375 23.75 26.25 23.75H3.75C3.0625 23.75 2.5 23.1875 2.5 22.5C2.5 21.8125 3.0625 21.25 3.75 21.25ZM3.125 15.7125C3.575 15.975 4.15 15.8125 4.4125 15.3625L5 14.3375L5.6 15.375C5.8625 15.825 6.4375 15.975 6.8875 15.725C7.3375 15.4625 7.4875 14.9 7.2375 14.45L6.625 13.4H7.8125C8.325 13.4 8.75 12.975 8.75 12.4625C8.75 11.95 8.325 11.525 7.8125 11.525H6.625L7.2125 10.5C7.475 10.05 7.325 9.47496 6.875 9.21246C6.65717 9.09121 6.40056 9.05994 6.15999 9.12534C5.91942 9.19074 5.71396 9.34762 5.5875 9.56246L5 10.5875L4.4125 9.56246C4.28604 9.34762 4.08058 9.19074 3.84001 9.12534C3.59944 9.05994 3.34283 9.09121 3.125 9.21246C2.675 9.47496 2.525 10.05 2.7875 10.5L3.375 11.525H2.1875C1.675 11.525 1.25 11.95 1.25 12.4625C1.25 12.975 1.675 13.4 2.1875 13.4H3.375L2.775 14.4375C2.525 14.8875 2.675 15.4625 3.125 15.7125ZM13.125 15.7125C13.575 15.975 14.15 15.8125 14.4125 15.3625L15 14.3375L15.6 15.375C15.8625 15.825 16.4375 15.975 16.8875 15.725C17.3375 15.4625 17.4875 14.9 17.2375 14.45L16.6375 13.4125H17.825C18.3375 13.4125 18.7625 12.9875 18.7625 12.475C18.7625 11.9625 18.3375 11.5375 17.825 11.5375H16.625L17.2125 10.5125C17.3361 10.2964 17.37 10.0405 17.3069 9.79973C17.2438 9.55896 17.0887 9.35257 16.875 9.22496C16.7691 9.16339 16.6522 9.12328 16.5308 9.10692C16.4094 9.09056 16.286 9.09827 16.1676 9.12961C16.0492 9.16095 15.9381 9.21531 15.8407 9.28958C15.7433 9.36385 15.6615 9.45657 15.6 9.56246L15 10.5875L14.4125 9.56246C14.3514 9.45608 14.2699 9.36287 14.1725 9.28822C14.0752 9.21357 13.964 9.15897 13.8454 9.12759C13.7269 9.0962 13.6032 9.08864 13.4817 9.10536C13.3602 9.12207 13.2432 9.16272 13.1375 9.22496C12.6875 9.48746 12.5375 10.0625 12.8 10.5125L13.3875 11.5375H12.1875C12.065 11.5358 11.9434 11.5585 11.8297 11.6043C11.716 11.65 11.6126 11.7179 11.5253 11.8039C11.4381 11.89 11.3689 11.9925 11.3216 12.1056C11.2743 12.2186 11.25 12.3399 11.25 12.4625C11.25 12.975 11.675 13.4 12.1875 13.4H13.375L12.775 14.4375C12.525 14.8875 12.675 15.4625 13.125 15.7125ZM28.75 12.4625C28.75 11.95 28.325 11.525 27.8125 11.525H26.625L27.2125 10.5C27.3361 10.2839 27.37 10.028 27.3069 9.78723C27.2438 9.54646 27.0887 9.34007 26.875 9.21246C26.7691 9.15089 26.6522 9.11078 26.5308 9.09442C26.4094 9.07806 26.286 9.08577 26.1676 9.11711C26.0492 9.14845 25.9381 9.20281 25.8407 9.27708C25.7433 9.35135 25.6615 9.44407 25.6 9.54996L25 10.5875L24.4125 9.56246C24.3514 9.45608 24.2699 9.36287 24.1725 9.28822C24.0752 9.21357 23.964 9.15897 23.8454 9.12759C23.7269 9.0962 23.6032 9.08864 23.4817 9.10536C23.3602 9.12207 23.2432 9.16272 23.1375 9.22496C22.6875 9.48746 22.5375 10.0625 22.8 10.5125L23.3875 11.5375H22.2C22.0766 11.5346 21.9538 11.5564 21.8389 11.6016C21.724 11.6468 21.6193 11.7144 21.5308 11.8005C21.4424 11.8867 21.372 11.9896 21.3238 12.1032C21.2755 12.2169 21.2505 12.339 21.25 12.4625C21.25 12.975 21.675 13.4 22.1875 13.4H23.375L22.775 14.4375C22.7129 14.5438 22.6727 14.6615 22.6567 14.7836C22.6407 14.9057 22.6493 15.0298 22.6819 15.1486C22.7145 15.2673 22.7705 15.3784 22.8466 15.4752C22.9227 15.572 23.0173 15.6527 23.125 15.7125C23.575 15.975 24.15 15.8125 24.4125 15.3625L25 14.3375L25.6 15.375C25.8625 15.825 26.4375 15.975 26.8875 15.725C27.3375 15.4625 27.4875 14.9 27.2375 14.45L26.6375 13.4125H27.825C28.325 13.4 28.75 12.975 28.75 12.4625Z" fill="white"/>
</svg>
