<svg width="87" height="82" viewBox="0 0 87 82" fill="none" xmlns="http://www.w3.org/2000/svg">
<path d="M69.1357 41.4294C69.1124 41.4301 69.0898 41.4222 69.072 41.4072C69.0614 41.3989 69.0526 41.3885 69.0461 41.3767C69.0395 41.365 69.0354 41.352 69.0338 41.3386C69.0323 41.3253 69.0334 41.3117 69.0371 41.2988C69.0408 41.2858 69.047 41.2737 69.0554 41.2632C71.0332 38.7396 70.8504 35.8781 70.6205 32.2576C70.5401 30.9945 70.457 29.687 70.4487 28.2466C70.4349 25.7535 71.4238 21.723 72.3878 17.82C73.5844 12.9335 74.8199 7.87814 73.7728 6.77011C71.9141 4.79227 65.6038 7.09421 62.2437 9.48479C59.4903 11.446 57.3157 11.0637 53.3656 10.3657C52.3324 10.1828 51.1495 9.97786 49.8254 9.78949C44.5623 9.04434 43.9916 9.86983 43.1994 11.0111C43.047 11.2299 42.8864 11.4571 42.6869 11.6925C42.6774 11.7023 42.666 11.7101 42.6534 11.7154C42.6408 11.7208 42.6272 11.7235 42.6135 11.7235C42.5998 11.7235 42.5863 11.7208 42.5737 11.7154C42.5611 11.7101 42.5497 11.7023 42.5401 11.6925C42.5216 11.6726 42.5114 11.6464 42.5114 11.6191C42.5114 11.5919 42.5216 11.5657 42.5401 11.5457C42.7184 11.3334 42.8849 11.1115 43.0387 10.8809C43.8698 9.67869 44.4764 8.80889 49.867 9.57066C51.2022 9.7618 52.3767 9.96678 53.4127 10.1496C57.3074 10.8366 59.4515 11.2161 62.1357 9.30473C65.6343 6.81165 71.9723 4.52911 73.9362 6.61775C75.0443 7.80612 73.8587 12.6898 72.5928 17.8587C71.6426 21.7369 70.6537 25.7701 70.6703 28.2355C70.6703 29.6704 70.7617 30.9723 70.8421 32.2327C71.0748 35.9003 71.2576 38.795 69.2326 41.374C69.2231 41.3912 69.209 41.4054 69.1919 41.4152C69.1748 41.4249 69.1554 41.4299 69.1357 41.4294Z" fill="#263238"/>
<path d="M42.997 19.172C43.9695 18.1995 43.9695 16.6227 42.997 15.6502C42.0244 14.6777 40.4477 14.6777 39.4751 15.6502C38.5026 16.6227 38.5026 18.1995 39.4751 19.172C40.4477 20.1446 42.0244 20.1446 42.997 19.172Z" fill="white"/>
<path opacity="0.3" d="M42.997 19.172C43.9695 18.1995 43.9695 16.6227 42.997 15.6502C42.0244 14.6777 40.4477 14.6777 39.4751 15.6502C38.5026 16.6227 38.5026 18.1995 39.4751 19.172C40.4477 20.1446 42.0244 20.1446 42.997 19.172Z" fill="#3566D5"/>
<path d="M42.8809 11.3684C42.6175 10.5884 42.0681 9.93722 41.3434 9.54639C40.6188 9.15555 39.7729 9.05413 38.9764 9.26257C38.1799 9.47101 37.4921 9.9738 37.0518 10.6695C36.6114 11.3652 36.4514 12.202 36.6039 13.0111L37.9225 19.6122L44.9723 17.7729L42.8809 11.3684Z" fill="#3566D5"/>
<path d="M44.0831 11.9336C44.0831 12.299 43.9747 12.6562 43.7717 12.9601C43.5687 13.2639 43.2801 13.5007 42.9425 13.6406C42.6049 13.7804 42.2334 13.817 41.875 13.7457C41.5166 13.6744 41.1874 13.4985 40.929 13.2401C40.6706 12.9817 40.4946 12.6525 40.4233 12.294C40.352 11.9356 40.3886 11.5641 40.5285 11.2265C40.6683 10.8889 40.9051 10.6003 41.209 10.3973C41.5128 10.1943 41.87 10.0859 42.2355 10.0859C42.4782 10.0856 42.7186 10.1331 42.943 10.2258C43.1673 10.3186 43.3711 10.4546 43.5428 10.6263C43.7144 10.7979 43.8505 11.0018 43.9432 11.2261C44.0359 11.4504 44.0835 11.6908 44.0831 11.9336Z" fill="#263238"/>
<path d="M42.2355 13.5596C41.9132 13.5596 41.5982 13.464 41.3303 13.2849C41.0624 13.1058 40.8536 12.8513 40.7304 12.5535C40.6072 12.2557 40.5751 11.9281 40.6382 11.612C40.7013 11.296 40.8567 11.0058 41.0847 10.7781C41.3128 10.5504 41.6033 10.3955 41.9194 10.333C42.2356 10.2704 42.5632 10.3031 42.8607 10.4268C43.1583 10.5505 43.4125 10.7597 43.5912 11.0279C43.7698 11.2961 43.8649 11.6113 43.8643 11.9336C43.8643 12.1473 43.8222 12.359 43.7403 12.5565C43.6584 12.7539 43.5384 12.9333 43.3871 13.0843C43.2358 13.2354 43.0562 13.3551 42.8586 13.4366C42.661 13.5182 42.4493 13.56 42.2355 13.5596ZM42.2355 10.5818C41.9681 10.5818 41.7068 10.6611 41.4845 10.8096C41.2622 10.9581 41.0889 11.1693 40.9866 11.4163C40.8843 11.6633 40.8575 11.9351 40.9097 12.1973C40.9618 12.4595 41.0906 12.7004 41.2796 12.8894C41.4687 13.0785 41.7096 13.2072 41.9718 13.2594C42.234 13.3116 42.5058 13.2848 42.7528 13.1825C42.9998 13.0802 43.2109 12.9069 43.3595 12.6846C43.508 12.4623 43.5873 12.2009 43.5873 11.9336C43.5873 11.5751 43.4449 11.2312 43.1914 10.9777C42.9379 10.7242 42.594 10.5818 42.2355 10.5818Z" fill="#3566D5"/>
<path d="M42.2355 12.2106C42.1687 12.2113 42.1039 12.1879 42.053 12.1446C42.0021 12.1014 41.9685 12.0412 41.9585 11.9751C41.953 11.9391 41.9547 11.9023 41.9634 11.867C41.9721 11.8316 41.9877 11.7983 42.0093 11.7689C42.0309 11.7396 42.0581 11.7148 42.0893 11.696C42.1205 11.6772 42.1552 11.6647 42.1912 11.6593L80.0167 5.87261C80.0901 5.86159 80.165 5.8802 80.2247 5.92436C80.2845 5.96852 80.3242 6.0346 80.3352 6.10807C80.3463 6.18153 80.3276 6.25637 80.2835 6.31611C80.2393 6.37585 80.1732 6.4156 80.0998 6.42662L42.2771 12.205L42.2355 12.2106Z" fill="#263238"/>
<path d="M64.5485 77.313H64.5097C64.4734 77.3083 64.4385 77.2964 64.4068 77.278C64.3752 77.2597 64.3475 77.2352 64.3254 77.2061C64.3032 77.177 64.2871 77.1438 64.2778 77.1085C64.2686 77.0731 64.2664 77.0362 64.2715 77L74.5734 0.756243C74.5837 0.684064 74.6221 0.618863 74.6802 0.574784C74.7382 0.530705 74.8114 0.511303 74.8837 0.520787C74.9563 0.530442 75.0222 0.56852 75.0669 0.626677C75.1115 0.684833 75.1313 0.758321 75.1219 0.831035L64.8227 77.072C64.814 77.1386 64.7814 77.1998 64.7309 77.2441C64.6805 77.2884 64.6156 77.3129 64.5485 77.313Z" fill="#263238"/>
<path d="M75.1247 7.07485C75.1247 7.29728 75.0587 7.51472 74.9351 7.69967C74.8116 7.88462 74.6359 8.02877 74.4304 8.11389C74.2249 8.19901 73.9988 8.22128 73.7806 8.17789C73.5625 8.13449 73.3621 8.02738 73.2048 7.8701C73.0475 7.71281 72.9404 7.51242 72.897 7.29426C72.8536 7.0761 72.8759 6.84997 72.961 6.64446C73.0461 6.43896 73.1902 6.26331 73.3752 6.13973C73.5601 6.01615 73.7776 5.9502 74 5.9502C74.2983 5.9502 74.5844 6.06868 74.7953 6.27959C75.0062 6.49051 75.1247 6.77657 75.1247 7.07485Z" fill="#263238"/>
<path d="M8.38221 79.1108L78.1218 79.1108V64.6953L8.38221 64.6953V79.1108Z" fill="#3566D5"/>
<path opacity="0.1" d="M8.38221 79.1108L78.1218 79.1108V64.6953L8.38221 64.6953V79.1108Z" fill="white"/>
<path d="M8.38221 58.3574H78.1218L79.18 47.5236C79.3246 46.0438 79.1578 44.5501 78.6906 43.1386C78.2233 41.7271 77.4658 40.4289 76.4669 39.3277C75.4679 38.2264 74.2495 37.3464 72.8901 36.7442C71.5306 36.142 70.0602 35.831 68.5734 35.8311H17.9307C16.4438 35.831 14.9734 36.142 13.614 36.7442C12.2546 37.3464 11.0362 38.2264 10.0372 39.3277C9.03822 40.4289 8.28074 41.7271 7.81348 43.1386C7.34621 44.5501 7.17949 46.0438 7.32404 47.5236L8.38221 58.3574Z" fill="#3566D5"/>
<path opacity="0.3" d="M8.38221 58.3574H78.1218L79.18 47.5236C79.3246 46.0438 79.1578 44.5501 78.6906 43.1386C78.2233 41.7271 77.4658 40.4289 76.4669 39.3277C75.4679 38.2264 74.2495 37.3464 72.8901 36.7442C71.5306 36.142 70.0602 35.831 68.5734 35.8311H17.9307C16.4438 35.831 14.9734 36.142 13.614 36.7442C12.2546 37.3464 11.0362 38.2264 10.0372 39.3277C9.03822 40.4289 8.28074 41.7271 7.81348 43.1386C7.34621 44.5501 7.17949 46.0438 7.32404 47.5236L8.38221 58.3574Z" fill="black"/>
<path opacity="0.9" d="M8.38221 65.5125L78.1218 65.5125V64.6953L8.38221 64.6953V65.5125Z" fill="#3566D5"/>
<path d="M8.38221 64.6953L78.1218 64.6953V57.0859L8.38221 57.0859V64.6953Z" fill="#3566D5"/>
<path opacity="0.2" d="M8.38221 64.6953L78.1218 64.6953V57.0859L8.38221 57.0859V64.6953Z" fill="black"/>
<path d="M79.097 45.2023C78.1292 45.2023 77.1716 45.4005 76.2832 45.7846C75.3948 46.1687 74.5945 46.7306 73.9315 47.4357C73.2685 48.1407 72.7568 48.9741 72.4279 49.8843C72.0991 50.7946 71.9601 51.7626 72.0195 52.7286L73.4045 75.4128C73.4447 76.0803 73.7384 76.7073 74.2255 77.1655C74.7126 77.6238 75.3562 77.8787 76.025 77.8782H82.1524C82.8212 77.8781 83.4649 77.623 83.9523 77.165C84.4396 76.7069 84.7341 76.0803 84.7757 75.4128L86.1607 52.7286C86.22 51.7637 86.0814 50.7969 85.7534 49.8876C85.4254 48.9783 84.915 48.1456 84.2534 47.4407C83.5919 46.7358 82.7932 46.1737 81.9065 45.7887C81.0198 45.4038 80.0637 45.2042 79.097 45.2023Z" fill="#3566D5"/>
<path opacity="0.1" d="M84.2592 54.8686C85.4568 52.0197 84.1181 48.7394 81.2693 47.5419C78.4204 46.3443 75.1401 47.683 73.9425 50.5318C72.745 53.3807 74.0836 56.661 76.9325 57.8586C79.7814 59.0561 83.0617 57.7175 84.2592 54.8686Z" fill="white"/>
<path d="M77.8089 80.3435H80.3851L80.7867 77.8782H77.4072L77.8089 80.3435Z" fill="#263238"/>
<path d="M5.98333 80.3435H8.5595L8.96117 77.8782H5.58167L5.98333 80.3435Z" fill="#263238"/>
<path d="M7.40719 45.2023C6.43935 45.2023 5.48176 45.4005 4.5934 45.7846C3.70503 46.1687 2.90469 46.7306 2.24167 47.4357C1.57864 48.1407 1.06696 48.9741 0.738125 49.8843C0.409294 50.7946 0.270277 51.7626 0.329633 52.7286L1.71467 75.4128C1.75626 76.0803 2.05072 76.7069 2.53809 77.165C3.02547 77.623 3.66911 77.8781 4.33794 77.8782H10.4654C11.1341 77.8787 11.7778 77.6238 12.2649 77.1655C12.7519 76.7073 13.0456 76.0803 13.0859 75.4128L14.4709 52.7286C14.5302 51.7637 14.3916 50.7969 14.0636 49.8876C13.7356 48.9783 13.2252 48.1456 12.5636 47.4407C11.9021 46.7358 11.1034 46.1737 10.2167 45.7887C9.32995 45.4038 8.37387 45.2042 7.40719 45.2023Z" fill="#3566D5"/>
<path opacity="0.1" d="M12.5642 54.8653C13.7617 52.0164 12.4231 48.7361 9.57418 47.5386C6.72531 46.341 3.44503 47.6797 2.24747 50.5285C1.04991 53.3774 2.38857 56.6577 5.23744 57.8553C8.08632 59.0528 11.3666 57.7142 12.5642 54.8653Z" fill="white"/>
<path d="M23.8616 28.9059C24.2355 29.1386 24.6732 29.399 25.0832 29.6427C25.4931 29.8865 25.9142 30.1358 26.3463 30.374C27.1912 30.856 28.0472 31.3103 28.9059 31.7591C29.7646 32.2078 30.6317 32.5901 31.5015 32.9474C32.3405 33.2949 33.2032 33.5818 34.0832 33.8062L33.7397 33.7729C34.5208 33.8006 35.4156 33.7923 36.2909 33.7729L38.9502 33.7037C40.7314 33.6593 42.5292 33.6123 44.3242 33.6289L44.5735 35.6316C43.6926 35.8616 42.8089 36.0555 41.9225 36.2411C41.0361 36.4267 40.1497 36.5956 39.2577 36.7535C38.3657 36.9114 37.4654 37.0555 36.5596 37.1746C35.6538 37.2937 34.7508 37.41 33.7397 37.4516H33.6261L33.3934 37.4128C32.2913 37.2293 31.2069 36.9513 30.1524 36.5818C29.1374 36.2349 28.1407 35.8365 27.1663 35.3879C26.1967 34.9502 25.2605 34.4654 24.338 33.9585C23.881 33.7037 23.4239 33.4433 22.9751 33.169C22.5264 32.8948 22.0915 32.615 21.6178 32.3048L23.8616 28.9059Z" fill="#FFC3BD"/>
<path d="M20.2604 29.5707C19.82 27.7868 22.2493 27.6621 29.2521 30.9031L27.7119 36.5208C27.7119 36.5208 21.5984 35.0167 20.2604 29.5707Z" fill="#3566D5"/>
<path opacity="0.2" d="M23.0721 31.2355C22.4821 31.2355 21.917 31.651 21.446 32.2355C23.2688 34.928 26.2992 36.0831 27.3436 36.4128H27.3796L27.4571 36.4321C26.3851 32.7673 24.6926 31.2632 23.0721 31.2355Z" fill="black"/>
<path d="M51.0194 55.8199L53.8948 55.3656L53.1385 48.0332L50.2632 48.4875L51.0194 55.8199Z" fill="#FFC3BD"/>
<path d="M54.0249 53.7147L50.5955 53.7646C50.5359 53.7676 50.4794 53.7919 50.4362 53.8331C50.393 53.8743 50.366 53.9296 50.3601 53.989L49.9196 56.8449C49.9086 56.9114 49.9118 56.9794 49.929 57.0446C49.9462 57.1097 49.977 57.1705 50.0194 57.2228C50.0618 57.2752 50.1149 57.318 50.175 57.3483C50.2352 57.3787 50.3011 57.3959 50.3684 57.3989C51.4986 57.3601 52.698 57.2743 54.1219 57.2549C54.9972 57.241 57.1551 57.3047 58.3656 57.2881C59.5762 57.2715 59.6731 55.9363 59.1717 55.8228C56.9252 55.3158 55.2465 54.5956 54.5014 53.8837C54.3704 53.7679 54.1996 53.7073 54.0249 53.7147Z" fill="#263238"/>
<path d="M30.0166 47.4821C30.0166 47.4821 40.5429 35.3546 46.0526 36.5236C52.3712 37.8671 54.8864 51.2965 54.8864 51.2965L49.9945 51.8505C49.9945 51.8505 47.4377 45.8449 44.5208 43.6455C38.5429 53.2992 23.2493 60.435 21.3684 50.4737C23.8809 49.4627 30.0166 47.4821 30.0166 47.4821Z" fill="#263238"/>
<path d="M55.3602 51.3823L49.2577 52.5763L48.7979 50.5624L55.1635 49.1857L55.3602 51.3823Z" fill="#263238"/>
<path d="M43.6593 33.6842L46.0139 33.2327L46.9973 36.0388C46.9973 36.0388 44.6427 36.8199 43.4987 35.3379L43.6593 33.6842Z" fill="#FFC3BD"/>
<path d="M48.7314 33.7978L49.338 35.831L46.9973 36.0388L46.0139 33.2327L48.7314 33.7978Z" fill="#FFC3BD"/>
<path d="M17.1274 51.1939C17.1274 51.1939 12.5402 44.4349 10.2881 33.5429C10.165 32.9359 10.1742 32.3095 10.3152 31.7064C10.4561 31.1033 10.7255 30.5376 11.1049 30.0481C11.4843 29.5585 11.9648 29.1565 12.5137 28.8695C13.0625 28.5825 13.6668 28.4173 14.2853 28.385C16.5014 28.2687 18.8394 28.2382 20.7396 28.2465C21.6679 28.2496 22.5701 28.5541 23.3104 29.1141C24.0508 29.6741 24.5893 30.4594 24.8449 31.3518C25.8781 34.9751 26.5291 39.7202 30.579 46.457C31.2299 47.5374 30.4322 48.9363 29.1939 49.1468L17.1274 51.1939Z" fill="#3566D5"/>
<path opacity="0.2" d="M10.2299 32.2189C11.7784 30.0582 13.1607 29.7535 13.554 29.8754C17.133 31.0056 13.277 40.8671 12.6953 41.9668C11.6851 39.2121 10.8805 36.3862 10.2881 33.5125C10.2017 33.0869 10.1821 32.6505 10.2299 32.2189Z" fill="black"/>
<path opacity="0.2" d="M28.2631 52.036C28.1662 52.3878 28.4404 53.5318 30.108 54.8282C32.3712 54.2105 34.8172 52.9806 37.1191 51.349C33.7424 50.3961 28.9418 49.5845 28.2631 52.036Z" fill="black"/>
<path d="M14.2577 21.4432C14.9779 23.4045 15.9003 26.9474 14.784 28.3684C16.161 29.5631 17.9503 30.1724 19.7702 30.0665C22.0693 29.9917 21.6012 29.072 20.8477 28.2576C18.6123 27.8781 18.3823 25.9945 18.4876 24.4266L14.2577 21.4432Z" fill="#FFC3BD"/>
<path opacity="0.2" d="M15.9806 22.6538L18.4737 24.4156C18.4432 24.7843 18.4432 25.1549 18.4737 25.5236C17.6261 25.8172 16.2438 25.0361 16.0028 24.1552C15.9213 23.6586 15.9138 23.1526 15.9806 22.6538Z" fill="black"/>
<path d="M18.8753 19.2882C19.3241 20.1469 20.1717 20.5873 20.7701 20.2771C21.3684 19.9668 21.4875 19.0167 21.0471 18.158C20.6066 17.2992 19.7507 16.8588 19.1523 17.1718C18.554 17.4848 18.421 18.4322 18.8753 19.2882Z" fill="#3566D5"/>
<path d="M18.2881 19.5928C18.7646 20.5042 19.6732 20.9779 20.302 20.6427C20.9308 20.3075 21.0637 19.302 20.579 18.3906C20.0942 17.4793 19.1939 17.0056 18.5651 17.3408C17.9363 17.6759 17.8117 18.6732 18.2881 19.5928Z" fill="white"/>
<path d="M18.989 18.8061L20.1275 18.4737C20.1275 18.4737 19.3602 17.2244 19.4266 16.2078C19.4931 15.1912 19.687 14.41 17.7092 14.4543C15.7313 14.4986 14.6316 16.4571 18.989 18.8061Z" fill="#263238"/>
<path d="M12.687 20.5402C14.072 22.8311 14.759 24.2383 16.615 24.8865C17.2075 25.1101 17.8501 25.1665 18.4725 25.0495C19.095 24.9325 19.6733 24.6467 20.1442 24.2232C20.6151 23.7997 20.9606 23.255 21.1428 22.6484C21.325 22.0418 21.3369 21.3969 21.1773 20.784C20.59 18.4267 18.4294 15.0749 15.5679 15.2244C12.7064 15.374 11.3075 18.2494 12.687 20.5402Z" fill="#FFC3BD"/>
<path d="M12.4571 18.3795C14.6233 18.036 18.3407 16.7341 17.8615 14.1496C17.5374 12.4128 14.831 12.9474 14.2604 13.8255C13.3723 15.0241 12.2498 16.0297 10.9612 16.7812C9.64266 17.518 9.22438 18.8948 12.4571 18.3795Z" fill="#263238"/>
<path d="M13.5346 22.3352L14.6232 21.8643C14.6232 21.8643 13.7036 20.7202 13.6426 19.7036C13.5817 18.687 13.6731 17.8864 11.7202 18.1801C9.76728 18.4737 8.91964 20.5651 13.5346 22.3352Z" fill="#263238"/>
<path d="M13.2438 21.2023C13.2256 21.2025 13.2076 21.1989 13.1909 21.1918C13.1742 21.1846 13.1592 21.174 13.1469 21.1607C11.6593 19.6981 11.4294 18.2798 11.4266 17.5596C11.4266 16.8893 11.6095 16.2854 11.9114 15.9807C11.9243 15.9677 11.9396 15.9574 11.9565 15.9503C11.9733 15.9433 11.9915 15.9397 12.0097 15.9397C12.028 15.9397 12.0461 15.9433 12.063 15.9503C12.0799 15.9574 12.0952 15.9677 12.1081 15.9807C12.1335 16.0066 12.1477 16.0414 12.1477 16.0776C12.1477 16.1139 12.1335 16.1487 12.1081 16.1746C11.8087 16.5714 11.6649 17.064 11.7036 17.5596C11.7036 18.23 11.9253 19.5652 13.3408 20.9585C13.3537 20.9714 13.364 20.9867 13.3711 21.0036C13.3781 21.0205 13.3817 21.0386 13.3817 21.0568C13.3817 21.0751 13.3781 21.0932 13.3711 21.1101C13.364 21.127 13.3537 21.1423 13.3408 21.1552C13.3289 21.1695 13.3141 21.1811 13.2974 21.1892C13.2807 21.1974 13.2624 21.2018 13.2438 21.2023Z" fill="#3566D5"/>
<path d="M12.748 23.4266C13.2541 23.7704 13.872 23.909 14.4765 23.8144C15.2688 23.6815 15.3075 22.9142 14.7535 22.3629C14.2771 21.8643 13.2882 21.338 12.6427 21.7535C11.9973 22.169 12.1275 23.0028 12.748 23.4266Z" fill="#FFC3BD"/>
<path d="M14.5901 21.6788C15.2383 22.4793 15.3131 23.4932 14.7563 23.9447C14.1995 24.3962 13.2244 24.1137 12.5762 23.3131C11.928 22.5125 11.8532 21.5015 12.41 21.0499C12.9668 20.5984 13.9446 20.8893 14.5901 21.6788Z" fill="white"/>
<path d="M14.0804 22.0942C14.6898 22.8449 14.7591 23.7978 14.2355 24.2216C13.712 24.6454 12.7951 24.3823 12.1857 23.6288C11.5762 22.8753 11.507 21.9252 12.0305 21.5014C12.5541 21.0775 13.471 21.3407 14.0804 22.0942Z" fill="#3566D5"/>
<path d="M15.8505 19.8919H15.6427C15.6806 19.6251 15.817 19.382 16.025 19.2105C16.0778 19.1612 16.1412 19.1248 16.2104 19.1042C16.2796 19.0835 16.3527 19.0791 16.4239 19.0914C16.484 19.1064 16.54 19.1345 16.5879 19.1738C16.6358 19.2131 16.6744 19.2625 16.7009 19.3185L16.5153 19.4155C16.5028 19.3861 16.4839 19.3599 16.4599 19.3388C16.4359 19.3177 16.4075 19.3023 16.3768 19.2936C16.3353 19.289 16.2933 19.2939 16.254 19.3078C16.2147 19.3217 16.179 19.3443 16.1496 19.3739C15.9943 19.5079 15.8889 19.6905 15.8505 19.8919Z" fill="#263238"/>
<path d="M18.2688 18.4184C18.246 18.3713 18.2341 18.3197 18.2341 18.2674C18.2341 18.2151 18.246 18.1635 18.2688 18.1164C18.3012 18.0599 18.3455 18.0111 18.3986 17.9733C18.4516 17.9356 18.5122 17.9097 18.5763 17.8976C18.6811 17.8698 18.7914 17.8698 18.8963 17.8974C19.0012 17.9251 19.0971 17.9796 19.1746 18.0555L19.0305 18.2051C18.979 18.1533 18.9146 18.1163 18.844 18.0978C18.7734 18.0793 18.6991 18.08 18.6289 18.0998C18.5935 18.1045 18.5596 18.1169 18.5295 18.136C18.4993 18.1552 18.4737 18.1806 18.4544 18.2106C18.4448 18.231 18.4398 18.2532 18.4398 18.2757C18.4398 18.2982 18.4448 18.3204 18.4544 18.3408L18.2688 18.4184Z" fill="#263238"/>
<path d="M17.8365 18.9806C17.8365 18.9806 18.8642 19.8836 19.6371 20.1911C19.4543 20.6703 18.7867 20.7978 18.7867 20.7978L17.8365 18.9806Z" fill="#ED847E"/>
<path d="M18.2299 22.097C17.7521 22.2487 17.234 22.2069 16.7867 21.9807C16.7794 21.9766 16.773 21.9712 16.7679 21.9646C16.7628 21.9581 16.7591 21.9505 16.7571 21.9425C16.755 21.9345 16.7546 21.9261 16.7559 21.9179C16.7571 21.9097 16.7601 21.9018 16.7645 21.8948C16.7687 21.8873 16.7745 21.8809 16.7814 21.8758C16.7883 21.8707 16.7961 21.8671 16.8045 21.8653C16.8129 21.8635 16.8215 21.8634 16.8299 21.8652C16.8383 21.8669 16.8462 21.8704 16.8532 21.8754C17.1005 21.9937 17.3712 22.0551 17.6454 22.0551C17.9196 22.0551 18.1903 21.9937 18.4376 21.8754C18.4531 21.8686 18.4707 21.8679 18.4866 21.8736C18.5026 21.8793 18.5158 21.8908 18.5235 21.9059C18.5273 21.9131 18.5296 21.921 18.5302 21.9292C18.5309 21.9373 18.5299 21.9455 18.5273 21.9533C18.5247 21.961 18.5206 21.9682 18.5152 21.9743C18.5098 21.9805 18.5032 21.9854 18.4958 21.989C18.4099 22.0314 18.321 22.0675 18.2299 22.097Z" fill="#263238"/>
<path d="M14.7978 19.4017C14.7758 19.4059 14.7532 19.4059 14.7313 19.4017C14.7144 19.3991 14.6983 19.393 14.6838 19.384C14.6693 19.375 14.6568 19.3632 14.647 19.3492C14.6372 19.3353 14.6303 19.3195 14.6267 19.3028C14.6231 19.2861 14.6228 19.2689 14.626 19.2521C14.659 19.0565 14.7401 18.8721 14.8619 18.7154C14.9838 18.5588 15.1425 18.4348 15.3241 18.3546C15.3561 18.3423 15.3917 18.3426 15.4236 18.3554C15.4555 18.3683 15.4813 18.3928 15.4958 18.4239C15.5025 18.4391 15.506 18.4555 15.5061 18.4722C15.5063 18.4888 15.503 18.5053 15.4965 18.5206C15.49 18.5359 15.4805 18.5497 15.4684 18.5612C15.4564 18.5727 15.4422 18.5816 15.4266 18.5873C15.2822 18.6519 15.156 18.7512 15.0594 18.8764C14.9627 19.0016 14.8985 19.1488 14.8725 19.3048C14.8695 19.326 14.861 19.3461 14.8479 19.3631C14.8348 19.3801 14.8175 19.3934 14.7978 19.4017Z" fill="#263238"/>
<path d="M19.1663 17.3574C19.1474 17.3669 19.1265 17.3718 19.1053 17.3718C19.0842 17.3718 19.0633 17.3669 19.0444 17.3574C18.9016 17.2787 18.7428 17.2338 18.58 17.2262C18.4172 17.2185 18.2548 17.2482 18.1053 17.3131C18.0751 17.3292 18.0397 17.3331 18.0066 17.3238C17.9736 17.3145 17.9454 17.2928 17.928 17.2632C17.9192 17.2494 17.9134 17.2339 17.9109 17.2176C17.9083 17.2014 17.9092 17.1849 17.9133 17.169C17.9175 17.1532 17.9249 17.1383 17.935 17.1255C17.9452 17.1126 17.9579 17.102 17.9724 17.0942C18.1599 17.0095 18.3644 16.9692 18.57 16.9764C18.7756 16.9836 18.9768 17.0381 19.158 17.1358C19.1733 17.1426 19.1871 17.1524 19.1984 17.1648C19.2098 17.1771 19.2184 17.1917 19.2239 17.2076C19.2294 17.2234 19.2315 17.2402 19.2302 17.257C19.2288 17.2737 19.224 17.29 19.2161 17.3047C19.2057 17.3273 19.1882 17.3457 19.1663 17.3574Z" fill="#263238"/>
<path d="M50.313 80.2161L52.7729 78.7202L49.2992 72.1246L46.8394 73.6205L50.313 80.2161Z" fill="#FFC3BD"/>
<path d="M51.7729 76.6759L48.9086 78.1081C48.8598 78.1371 48.8233 78.1829 48.8059 78.237C48.7886 78.2911 48.7916 78.3497 48.8144 78.4017L49.7314 81.1274C49.7478 81.1914 49.7775 81.2512 49.8185 81.303C49.8595 81.3548 49.9108 81.3974 49.9692 81.4282C50.0277 81.459 50.0919 81.4772 50.1578 81.4817C50.2237 81.4862 50.2898 81.4769 50.3519 81.4543C51.2632 80.9751 51.9003 80.5734 53.061 79.9945C53.7757 79.6371 55.9779 78.6482 56.964 78.1551C57.9502 77.6621 57.435 76.4321 56.964 76.5291C54.892 76.9612 53.1663 76.9917 52.2549 76.6593C52.1778 76.6286 52.0951 76.6143 52.0122 76.6172C51.9292 76.62 51.8477 76.64 51.7729 76.6759Z" fill="#263238"/>
<path d="M27.7978 49.385C27.7978 49.385 33.1496 50.1219 40.9446 55.2382C46.3435 58.7839 51.0554 73.3351 51.0554 73.3351L46.8338 76.2188C46.8338 76.2188 41.4682 64.5374 36.9751 60.2243C22.2105 56.7091 17.8615 61.3047 17.1274 51.1966C19.7369 50.4709 27.7978 49.385 27.7978 49.385Z" fill="#263238"/>
<path d="M52.0693 73.9751L46.5098 76.7646L45.5264 74.9474L51.2909 71.9142L52.0693 73.9751Z" fill="#263238"/>
<path d="M13.9779 33.3075C13.4377 35.0554 12.8698 36.8587 12.3961 38.6232C12.1524 39.5069 11.9308 40.3933 11.7424 41.2548C11.6538 41.6842 11.5734 42.1108 11.518 42.5124C11.4624 42.8559 11.4337 43.2033 11.4322 43.5512C11.4322 43.6122 11.4322 43.6482 11.4322 43.6648C11.4322 43.6814 11.4322 43.6648 11.4322 43.651C11.4322 43.626 11.4072 43.59 11.3906 43.5595C11.374 43.5291 11.3324 43.4543 11.3075 43.4183C11.2078 43.2853 11.1856 43.2908 11.1884 43.2964C11.219 43.3287 11.2524 43.3584 11.2881 43.385C11.594 43.5969 11.9174 43.7823 12.2549 43.939C13.0222 44.3102 13.8726 44.6676 14.7313 45C16.4515 45.6759 18.241 46.3019 19.9945 46.964L19.5513 48.9335C17.6169 48.7321 15.6971 48.4092 13.8033 47.9667C12.8225 47.7452 11.855 47.4677 10.9058 47.1357C10.3587 46.9464 9.83017 46.7072 9.32689 46.421C9.16185 46.3204 9.00277 46.2104 8.85044 46.0914C8.61762 45.9094 8.41316 45.6937 8.24379 45.4515C8.18018 45.3575 8.1228 45.2594 8.07205 45.1579C8.04434 45.0997 8.01664 45.0388 7.99448 44.9834L7.95847 44.8892C7.90861 44.759 7.87814 44.6482 7.8449 44.5346C7.79648 44.3404 7.7604 44.1433 7.73687 43.9446C7.66927 43.3439 7.66184 42.7379 7.7147 42.1357C7.75626 41.5817 7.82274 41.0803 7.89753 40.5762C8.04989 39.5651 8.25764 38.5983 8.47925 37.6399C8.93096 35.7385 9.48016 33.8616 10.1247 32.0166L13.9779 33.3075Z" fill="#FFC3BD"/>
<path d="M13.2825 28.5595C12.7285 28.7091 10.2161 29.0859 8.43213 35.2271L14.4681 37.5817C14.4681 37.5817 18.6482 27.1246 13.2825 28.5595Z" fill="#3566D5"/>
<path d="M19.9253 46.9002L22.0444 47.9556L20.1053 50.2964C20.1053 50.2964 17.8893 48.8725 18.2937 47.6675L19.097 46.9972C19.211 46.9029 19.3499 46.8436 19.4968 46.8264C19.6438 46.8092 19.7926 46.8348 19.9253 46.9002Z" fill="#FFC3BD"/>
<path d="M23.9585 50.0859L21.8422 51.8144L20.0942 50.2964L22.0444 47.9557L23.9585 50.0859Z" fill="#FFC3BD"/>
</svg>
